<?xml version="1.0" encoding="utf-8"?><svg width="24" height="24" fill="none" xmlns="http://www.w3.org/2000/svg" viewBox="0 0 24 24"><path d="M11.873 12.548l-.002-.001-5.298-3.06h-.001a.242.242 0 01-.093-.33l.003-.005a.243.243 0 01.331-.094l.007.004 4.92 2.85.25.145.251-.145 4.89-2.83h.002a.247.247 0 01.334.086c.067.118.017.28-.084.338h-.003l-5.253 3.037a.29.29 0 01-.126.037.247.247 0 01-.128-.032z"/><path d="M12 18.02a.256.256 0 01-.25-.25v-5.44c0-.134.116-.25.25-.25s.25.116.25.25v5.44c0 .134-.116.25-.25.25z"/><path d="M7.433 16.153h-.001c-.385-.213-.75-.59-1.02-1.052-.27-.46-.422-.967-.422-1.411V10.3c0-.437.153-.94.425-1.403.271-.462.638-.843 1.02-1.061l3.198-1.779c.77-.426 1.965-.426 2.735 0l3.2 1.78c.386.213.75.59 1.02 1.052.27.46.422.967.422 1.41v3.39c0 .438-.153.941-.425 1.404-.27.461-.637.843-1.02 1.061l-3.198 1.779-.003.002c-.367.207-.847.315-1.364.315-.51 0-.993-.115-1.369-.318l-3.198-1.78zM12 6.25c-.376 0-.791.066-1.124.254L7.679 8.282h-.001c-.35.193-.639.53-.838.87-.2.34-.35.756-.35 1.148v3.39c0 .396.15.812.35 1.152.2.34.49.673.838.865h.001l3.195 1.778.002.001c.33.186.747.259 1.124.259.377 0 .795-.073 1.125-.259h.001l3.196-1.778c.35-.194.64-.53.838-.87.2-.34.35-.756.35-1.148V10.3c0-.397-.15-.812-.35-1.152-.2-.34-.49-.674-.837-.866h-.002l-3.195-1.777-.001-.001c-.333-.188-.748-.254-1.125-.254z"/><path d="M9 22h6c5 0 7-2 7-7V9c0-5-2-7-7-7H9C4 2 2 4 2 9v6c0 5 2 7 7 7z"/></svg>