<?xml version="1.0" encoding="utf-8"?><svg width="24" height="24" fill="none" xmlns="http://www.w3.org/2000/svg" viewBox="0 0 24 24"><path d="M10.697 21.71l-.003-.003-1.52-1.52-.354.353.354-.353a1.421 1.421 0 00-.448-.279 1.412 1.412 0 00-.506-.118H6.06a1.847 1.847 0 01-1.85-1.85v-2.16c0-.178-.062-.371-.118-.505a1.42 1.42 0 00-.278-.448l-1.52-1.52-.352.352.352-.352A1.838 1.838 0 011.75 12c0-.5.189-.96.54-1.302l.004-.004 1.52-1.52c.13-.13.222-.313.278-.448.056-.134.118-.327.118-.506V6.06c0-1.023.826-1.85 1.85-1.85h2.16c.179 0 .371-.062.506-.118a1.42 1.42 0 00.448-.278l1.52-1.52c.684-.685 1.928-.685 2.612 0l1.52 1.52.349-.349-.349.349c.13.13.313.223.448.278.135.056.327.118.506.118h2.16c1.024 0 1.85.827 1.85 1.85v2.16c0 .18.062.372.118.506.056.135.149.318.278.448l1.52 1.52c.348.348.544.811.544 1.306 0 .5-.19.96-.54 1.303l-.004.004-1.52 1.52a1.42 1.42 0 00-.278.447 1.41 1.41 0 00-.118.506v2.16c0 1.024-.826 1.85-1.85 1.85h-2.16c-.179 0-.371.063-.506.118a1.422 1.422 0 00-.448.279l-1.52 1.52-.003.004c-.343.35-.803.54-1.303.54-.5 0-.96-.19-1.303-.54zm9.137-12.183l-.354.353.354-.353c-.307-.307-.544-.88-.544-1.307V6.06a1.35 1.35 0 00-1.35-1.35h-2.16c-.427 0-1-.237-1.306-.543l-1.52-1.52L12.6 3l.354-.353a1.37 1.37 0 00-1.908 0L11.4 3l-.354-.353-1.52 1.52.354.353-.354-.353c-.306.306-.88.543-1.306.543H6.06a1.35 1.35 0 00-1.35 1.35v2.16c0 .427-.237 1-.544 1.307l-1.52 1.52A1.339 1.339 0 002.25 12c0 .366.145.703.396.954l1.52 1.52.354-.354-.354.354c.307.306.544.88.544 1.306v2.16c0 .746.604 1.35 1.35 1.35h2.16c.427 0 1 .237 1.306.544l.354-.354-.354.354 1.52 1.52a1.37 1.37 0 001.908 0l1.52-1.52c.306-.307.88-.544 1.306-.544h2.16a1.35 1.35 0 001.35-1.35v-2.16c0-.426.237-1 .544-1.306l1.52-1.52A1.34 1.34 0 0021.75 12c0-.366-.145-.702-.396-.953l-1.52-1.52z"/><path d="M15 15.5a.505.505 0 01-.51-.5c0-.274.226-.5.5-.5s.5.226.5.5c0 .28-.223.5-.49.5zM9.01 9.5A.505.505 0 018.5 9c0-.274.226-.5.5-.5s.5.226.5.5c0 .28-.223.5-.49.5zM9.176 15.176l.353.354-.353-.354a.242.242 0 01-.177.073.242.242 0 01-.176-.073.255.255 0 010-.353l6-6a.255.255 0 01.353 0 .255.255 0 010 .353l-6 6z"/></svg>