<?xml version="1.0" encoding="utf-8"?><svg width="24" height="24" fill="none" xmlns="http://www.w3.org/2000/svg" viewBox="0 0 24 24"><path d="M7.407 21.67l-.004-.003a1.24 1.24 0 01-.653-1.097v-1.871l-.449-.046c-1.397-.144-2.527-.724-3.308-1.612-.782-.889-1.243-2.117-1.243-3.601v-6c0-1.606.537-2.91 1.439-3.812C4.09 2.727 5.395 2.19 7 2.19h10c1.605 0 2.91.537 3.811 1.438.902.902 1.439 2.206 1.439 3.812v6c0 1.605-.537 2.91-1.439 3.811-.901.902-2.206 1.439-3.811 1.439h-3.921l-.126.084-4.257 2.838h-.002a1.263 1.263 0 01-1.287.057zm.216-.461a.742.742 0 00.785-.017l.009-.006 4.45-2.96c.045-.03.1-.046.143-.046h4c1.4 0 2.597-.455 3.446-1.304.849-.849 1.304-2.046 1.304-3.446v-6c0-1.4-.455-2.597-1.304-3.446-.849-.849-2.046-1.304-3.446-1.304H7c-1.4 0-2.597.455-3.446 1.304C2.705 4.833 2.25 6.03 2.25 7.43v6c0 1.4.455 2.597 1.304 3.446C4.403 17.725 5.6 18.18 7 18.18c.134 0 .25.116.25.25v2.13c0 .393.266.585.373.649z"/><path d="M12 11.61a.256.256 0 01-.25-.25v-.21c0-.877.627-1.314.951-1.537.199-.134.38-.279.509-.458.144-.201.2-.413.2-.635 0-.776-.634-1.41-1.41-1.41-.776 0-1.41.634-1.41 1.41 0 .134-.116.25-.25.25a.256.256 0 01-.25-.25c0-1.054.856-1.91 1.91-1.91 1.054 0 1.91.856 1.91 1.91 0 .857-.62 1.295-.93 1.505-.206.138-.395.286-.528.471-.15.21-.202.429-.202.654v.21c0 .14-.112.25-.25.25zM12.01 14.5a.505.505 0 01-.51-.5c0-.274.226-.5.5-.5s.5.226.5.5c0 .28-.223.5-.49.5z"/></svg>