<?xml version="1.0" encoding="utf-8"?><svg width="24" height="24" fill="none" xmlns="http://www.w3.org/2000/svg" viewBox="0 0 24 24"><path d="M5.795 21.861h-.003a.267.267 0 01-.182-.268C5.837 18.94 8.574 16.72 12 16.72c3.429 0 6.16 2.212 6.392 4.882a.238.238 0 01-.179.257l-.007.002c-.868.261-1.916.389-3.205.389H9c-1.29 0-2.338-.128-3.206-.389zm.444-.934l-.144.52.529.103c.7.139 1.485.2 2.377.2h6c.891 0 1.675-.061 2.376-.2l.529-.104-.143-.52c-.608-2.2-3.051-3.706-5.762-3.706-2.712 0-5.155 1.506-5.762 3.707z"/><path d="M15 2H9C4 2 2 4 2 9v6c0 3.78 1.14 5.85 3.86 6.62.22-2.6 2.89-4.65 6.14-4.65 3.25 0 5.92 2.05 6.14 4.65C20.86 20.85 22 18.78 22 15V9c0-5-2-7-7-7zm-3 12.17c-1.98 0-3.58-1.61-3.58-3.59C8.42 8.6 10.02 7 12 7s3.58 1.6 3.58 3.58-1.6 3.59-3.58 3.59z"/><path d="M12 14.42a3.84 3.84 0 01-3.83-3.84A3.832 3.832 0 0112 6.75a3.832 3.832 0 013.83 3.83A3.84 3.84 0 0112 14.42zm0-7.17a3.336 3.336 0 000 6.67 3.336 3.336 0 000-6.67z"/></svg>